<svg width="98" height="42" viewBox="0 0 98 42" fill="none" xmlns="http://www.w3.org/2000/svg">
<path d="M58.0638 15.0012V18.3267C58.0638 25.4435 53.8217 27.8171 49.0203 27.8197C44.2184 27.8176 39.9767 25.4435 39.9767 18.3267V15.0012H29.6572V19.1179C29.6572 33.6123 39.8212 37.2146 49.0208 37.3081C49.1395 37.3101 48.8985 37.3127 49.0208 37.3127C49.0229 37.3127 49.0187 37.3127 49.0208 37.3127C49.0229 37.3127 49.0187 37.3127 49.0208 37.3127C49.1431 37.3127 48.9021 37.3101 49.0208 37.3081C58.2204 37.2146 68.3844 33.6128 68.3844 19.1179V15.0012H58.0638Z" fill="#2D2D35"/>
<path d="M76.6779 -0.000105591L70.3874 6.26823L85.419 20.9903L70.3874 35.7124L76.6779 41.9807L98.0001 20.9903L76.6779 -0.000105591Z" fill="#FF5A2D"/>
<path d="M21.3222 42.0003L27.6127 35.732L12.581 21.0099L27.6127 6.28786L21.3222 0.0195312L-2.24743e-08 21.0099L21.3222 42.0003Z" fill="#FF5A2D"/>
</svg>
